<?xml version="1.0" standalone="no"?>
<!DOCTYPE svg PUBLIC "-//W3C//DTD SVG 20010904//EN"
 "http://www.w3.org/TR/2001/REC-SVG-20010904/DTD/svg10.dtd">
<svg version="1.0" xmlns="http://www.w3.org/2000/svg"
 width="402.000000pt" height="61.000000pt" viewBox="0 0 402.000000 61.000000"
 preserveAspectRatio="xMidYMid meet">

<g transform="translate(0.000000,61.000000) scale(0.100000,-0.100000)"
fill="#000000" stroke="none">
<path d="M114 427 c-2 -7 -3 -76 -2 -152 l3 -140 40 0 c40 0 40 0 43 43 l3 42
50 0 49 0 0 40 0 40 -50 0 c-49 0 -50 1 -50 30 0 30 0 30 56 30 l55 0 -3 37
-3 37 -93 3 c-67 2 -94 -1 -98 -10z"/>
<path d="M725 428 c-33 -17 -45 -39 -45 -80 0 -47 26 -72 97 -93 40 -12 53
-20 53 -34 0 -10 -7 -22 -16 -25 -17 -7 -54 10 -54 24 0 6 -21 10 -46 10 -42
0 -45 -1 -39 -22 13 -44 50 -70 104 -76 63 -6 107 11 127 50 31 60 0 106 -88
132 -49 15 -71 41 -48 56 21 14 28 12 50 -10 25 -25 90 -28 90 -4 0 26 -19 53
-50 69 -34 17 -106 19 -135 3z"/>
<path d="M982 432 c-8 -2 -12 -47 -12 -148 l0 -144 40 0 40 0 0 56 0 55 48 -3
47 -3 3 -51 c3 -49 5 -52 32 -56 16 -3 33 -2 38 1 11 8 24 289 13 295 -4 3
-24 3 -44 -1 -37 -6 -37 -6 -37 -54 l0 -49 -50 0 -50 0 0 49 c0 46 -2 49 -28
53 -16 2 -34 2 -40 0z"/>
<path d="M1323 432 c-23 -3 -23 -6 -23 -150 l0 -147 42 1 43 1 0 149 c0 164 3
157 -62 146z"/>
<path d="M1525 427 c-41 -19 -83 -70 -90 -111 -27 -141 146 -240 268 -154 76
55 75 192 -2 248 -40 28 -132 37 -176 17z m125 -87 c12 -12 20 -33 20 -55 0
-46 -29 -75 -74 -75 -39 0 -76 37 -76 75 0 12 9 34 21 49 26 33 79 36 109 6z"/>
<path d="M1817 433 c-4 -3 -7 -71 -7 -150 l0 -143 30 -1 c17 -1 36 -2 43 -3 8
-1 14 22 17 72 l5 74 48 -66 c27 -36 53 -68 58 -72 21 -13 63 -14 70 -2 4 7 6
73 4 148 l-4 135 -33 7 c-18 4 -36 4 -40 0 -4 -4 -8 -38 -10 -76 l-3 -70 -58
77 c-48 64 -62 77 -86 77 -15 0 -31 -3 -34 -7z"/>
<path d="M2254 425 c-3 -6 -3 -74 -2 -150 3 -152 5 -156 64 -141 20 5 24 12
24 46 l0 39 48 3 c47 3 47 3 50 41 l3 37 -50 0 c-50 0 -51 1 -51 30 0 30 1 30
55 30 l55 0 0 35 c0 19 -3 36 -7 36 -40 8 -186 3 -189 -6z"/>
<path d="M2500 329 c0 -124 11 -159 60 -184 37 -19 103 -19 140 0 49 25 60 60
60 186 0 111 0 111 -22 105 -13 -3 -30 -6 -39 -6 -13 0 -17 -18 -22 -102 -6
-101 -13 -118 -47 -118 -38 0 -45 17 -50 122 l-5 103 -37 2 -38 2 0 -110z"/>
<path d="M2864 431 c-30 -13 -54 -50 -54 -82 0 -42 34 -76 95 -94 43 -12 55
-20 55 -35 0 -16 -7 -20 -30 -20 -18 0 -33 6 -36 15 -9 21 -84 21 -84 -1 0
-53 59 -88 137 -82 69 6 103 35 103 89 0 46 -37 81 -103 98 -53 13 -67 29 -43
46 20 15 56 8 56 -11 0 -10 13 -14 46 -14 42 0 45 1 39 23 -14 45 -50 70 -107
74 -29 1 -63 -1 -74 -6z"/>
<path d="M3105 432 c-3 -3 -5 -70 -5 -149 l0 -143 45 0 46 0 -3 148 -3 147
-37 1 c-21 1 -40 -1 -43 -4z"/>
<path d="M3325 427 c-120 -56 -119 -232 2 -283 113 -48 233 23 233 138 0 94
-51 147 -148 154 -36 3 -68 -1 -87 -9z m116 -78 c29 -15 40 -52 28 -89 -13
-35 -35 -50 -78 -50 -34 0 -71 39 -71 75 0 12 9 34 21 49 22 28 64 35 100 15z"/>
<path d="M3615 431 c-3 -2 -5 -69 -5 -148 0 -155 -4 -145 58 -147 27 -1 27 0
32 73 l5 73 53 -71 c49 -66 56 -71 90 -71 l37 0 2 145 2 145 -44 0 -44 0 -3
-72 -3 -72 -53 71 c-45 61 -57 71 -87 75 -20 2 -38 2 -40 -1z"/>
<path d="M391 290 c-30 -76 -54 -142 -53 -147 1 -4 21 -7 43 -8 34 0 43 4 50
23 7 19 16 22 58 22 42 0 53 -4 63 -22 11 -20 19 -22 55 -18 l41 5 -55 143
-56 142 -46 0 -46 0 -54 -140z m128 -37 c1 -8 -11 -13 -29 -13 -35 0 -36 4
-14 56 l17 39 13 -35 c7 -19 13 -41 13 -47z"/>
</g>
</svg>
